<svg xmlns="http://www.w3.org/2000/svg" xmlns:xlink="http://www.w3.org/1999/xlink" width="224.43" height="82.41" viewBox="0 0 224.43 82.41"><defs><clipPath id="a"><rect width="224.43" height="82.41" fill="none"/></clipPath></defs><g transform="translate(0 0)" clip-path="url(#a)"><path d="M68.983,78.735a4.216,4.216,0,0,0,.9-.855,4.893,4.893,0,0,0,.938-2.2,6.217,6.217,0,0,0-.051-2.31,8.224,8.224,0,0,0-.724-2.114A11.227,11.227,0,0,0,68.9,69.414c-.426-.554-.871-1.084-1.33-1.586a24.2,24.2,0,0,0-2.909-2.7,31.736,31.736,0,0,0-3.049-2.074c-1.972-1.243-3.742-2.43-5.228-3.58a21.133,21.133,0,0,1-3.507-3.287A5.776,5.776,0,0,1,51.54,53.6a2.677,2.677,0,0,1-.031-.72,1.707,1.707,0,0,1,.036-.241.14.14,0,0,0,0-.04q.286-.255.571-.511c1.243-1.12,2.474-2.248,3.666-3.249a40.6,40.6,0,0,1,3.368-2.569,3.681,3.681,0,0,1,.687-.413,2.354,2.354,0,0,1,.67-.112c.48-.025.929-.014,1.29-.013l1.147.017c.6.092,1.206.205,1.822.354.275.07.553.144.831.228s.588.175.884.248c.6.157,1.206.291,1.824.426l3.81.806A27.4,27.4,0,0,1,76,48.9c.614.249,1.285.572,1.941.846s1.336.562,2.018.832A38.133,38.133,0,0,0,88.7,53.04a12.336,12.336,0,0,0,4.761-.2,5.965,5.965,0,0,0,2.214-1.134,5,5,0,0,0,.862-.929,4.517,4.517,0,0,0,.34-.533c.057-.095.1-.174.151-.274l.025-.053c-.077-.019.14-.019,0-.287.012,0-.005,0,0-.013l.005-.045c0-.018.016-.123.019-.187a1.593,1.593,0,0,0-.008-.222,1.35,1.35,0,0,0-.132-.413,1.813,1.813,0,0,0-.489-.576,4.111,4.111,0,0,0-1.138-.61l-2.172-.844-4.312-1.676L80.45,41.785c-5.439-2.114-10.517-4.087-14.867-5.777q-1.406-.549-2.719-1.035l2.723-.148c2.948-.149,7.161-.33,12.221-.539s10.955-.431,17.293-.875a24.325,24.325,0,0,0,4.827-.823,13.452,13.452,0,0,0,2.353-.937A10.3,10.3,0,0,0,104.4,30.18a8.35,8.35,0,0,0,2.674-4.461c.03-.223.079-.443.092-.668l.021-.337a1.089,1.089,0,0,0-.052-.471,1.009,1.009,0,0,0-.813-.655,1.04,1.04,0,0,0-.262,0l-.157.017-.314.035-2.509.279c-4.228.439-8.464.741-12.6.944q.263-.121.556-.251c.783-.345,1.709-.8,2.643-1.328a13.541,13.541,0,0,0,2.832-1.966A6.5,6.5,0,0,0,97.641,19.9c.3-.489.574-.983.813-1.478a8.566,8.566,0,0,0,.91-2.922,3.371,3.371,0,0,0-.5-2.249c-.077-.1-.144-.192-.205-.274a12.2,12.2,0,0,0,.337-1.52A11.8,11.8,0,0,0,99.1,9.579L99.07,9.1a2.56,2.56,0,0,0-.091-.536A1.538,1.538,0,0,0,98.694,8a1.024,1.024,0,0,0-.672-.366,1.346,1.346,0,0,0-.654.113c-.174.074-.3.139-.44.2l-.836.393-1.68.788c-1.129.513-2.255,1.042-3.393,1.546q-1.548.7-3.1,1.375l-.014-.042a.578.578,0,0,0-.213.04l-.4.117c-.114.034-.2.071-.2.086s.016.051.045.14c-7.795,3.377-15.5,6.312-21.544,8.412-3.527,1.229-6.484,2.195-8.56,2.852L53.764,24.68a.106.106,0,0,0-.04.027,14.663,14.663,0,0,0-3.4.241c-.35.069-.623.139-.826.2-.03-.036-.061-.056-.087-.048l-2.011.655L45.12,26.6c-.863.358-1.85.741-2.895,1.221-2.105.931-4.507,2.126-7.051,3.438s-5.249,2.714-8.027,3.934a43.6,43.6,0,0,1-8.4,2.815,21.455,21.455,0,0,1-7.626.149A30.263,30.263,0,0,1,5.837,36.82c-.623-.221-1.111-.4-1.44-.531l-.5-.2c-.047-.019-.122.055-.166.164l-.16.392c-.045.109-.042.214.006.232l.515.2c.335.135.833.317,1.469.543A31.182,31.182,0,0,0,10.99,39a22.287,22.287,0,0,0,7.928-.157A44.494,44.494,0,0,0,27.49,35.97c2.814-1.236,5.53-2.652,8.074-3.958s4.926-2.5,7.009-3.418c1.035-.476,2.007-.853,2.86-1.207l2.243-.832,1.539-.5a.183.183,0,0,0,.157.022,7.192,7.192,0,0,1,1.114-.293,13.808,13.808,0,0,1,3.31-.222c2.953.119,7.172.287,12.238.4,2.8.062,5.863.1,9.108.105a.166.166,0,0,0,.184.075l.187-.075c4.077,0,8.438-.074,12.949-.261.016.019.03.031.036.027l.057-.031c2.074-.086,4.178-.2,6.3-.337a2.461,2.461,0,0,0,.722,1.5,3.289,3.289,0,0,0,.925.567,3.034,3.034,0,0,0,.325.11l.3.053c.193.023.387.043.579.052a22.883,22.883,0,0,0,2.364-.026c1.594-.087,3.174-.271,4.356-.453.532-.079.976-.157,1.311-.219a8.039,8.039,0,0,1-1.9,2.5,10.464,10.464,0,0,1-4.148,2.225,23.379,23.379,0,0,1-4.657.79c-6.289.441-12.2.65-17.257.874s-9.274.389-12.226.539l-4.639.252a.239.239,0,0,0-.08.022c-.428-.145-.85-.284-1.26-.411A38.05,38.05,0,0,0,54.75,32.63a26.133,26.133,0,0,0-3.188-.376c-.37-.03-.655-.023-.848-.03l-.291-.005a.2.2,0,0,0-.193.21v.422a.207.207,0,0,0,.188.218l.279.006c.186.006.459,0,.818.029a25.022,25.022,0,0,1,3.085.365,37.106,37.106,0,0,1,4.707,1.18c1.8.562,3.793,1.306,5.966,2.152l14.867,5.777,6.019,2.339c-.014.043-.029.079-.044.129a2.47,2.47,0,0,0,.068,1.69,3.281,3.281,0,0,0,.627.887c.061.065.169.154.256.228l.252.165c.169.1.339.192.511.276a23.333,23.333,0,0,0,2.185.9c1.5.546,3.026,1,4.184,1.3.48.125.89.222,1.214.295-.091.091-.182.182-.279.266a5.1,5.1,0,0,1-1.9.967,11.518,11.518,0,0,1-4.422.174,37.27,37.27,0,0,1-8.536-2.407c-.674-.267-1.34-.54-1.994-.823s-1.273-.574-1.96-.854A28.057,28.057,0,0,0,72.3,46.977l-3.815-.807c-.611-.134-1.212-.266-1.789-.418-.293-.071-.565-.157-.853-.238s-.584-.167-.874-.241a34.628,34.628,0,0,0-6.4-.772,47.979,47.979,0,0,0-4.942.074,13.361,13.361,0,0,1-3.052-.208c-.186-.038-.344-.075-.48-.109.875-.758,1.613-1.415,2.181-1.92l1.289-1.157c.031-.029-.006-.123-.086-.21l-.283-.314c-.079-.088-.17-.136-.2-.108L51.713,41.7c-.82.731-1.994,1.773-3.428,2.991a63.864,63.864,0,0,1-11.224,7.88,31.854,31.854,0,0,1-6.773,2.669c-.562.145-1.124.251-1.668.374a7.257,7.257,0,0,1-.815.144l-.8.113a22.748,22.748,0,0,1-2.989.234c-1.864.036-3.427-.064-4.521-.13l-1.722-.117c-.043,0-.084.091-.092.208l-.03.422c-.008.118.019.217.062.219l1.729.118c1.1.066,2.682.167,4.592.131a23.435,23.435,0,0,0,3.081-.241l.826-.117a7.634,7.634,0,0,0,.842-.148c.562-.127,1.141-.236,1.721-.387a32.551,32.551,0,0,0,6.951-2.738,64.62,64.62,0,0,0,11.381-7.985c.169-.143.332-.282.492-.419a9.741,9.741,0,0,0,1.086.278,14.2,14.2,0,0,0,3.241.223,47.217,47.217,0,0,1,4.874-.074l.418.023c-.092.061-.182.123-.273.184a41.169,41.169,0,0,0-3.442,2.626c-1.211,1.015-2.447,2.15-3.688,3.267s-2.484,2.225-3.7,3.194a33.77,33.77,0,0,1-3.459,2.422c-.543.288-1.024.585-1.48.789s-.84.408-1.177.527l-1.05.393c-.026.01-.017.109.019.222l.132.4c.036.112.088.195.116.186l1.1-.413c.352-.127.754-.339,1.231-.552s.975-.521,1.539-.822a34.109,34.109,0,0,0,3.557-2.49c.755-.6,1.519-1.258,2.281-1.929a3.159,3.159,0,0,0,.043.354,6.605,6.605,0,0,0,1.508,2.987c1.773,2.217,4.979,4.566,8.945,7.052A31.066,31.066,0,0,1,64.131,65.8a23.537,23.537,0,0,1,2.806,2.6c.443.485.874,1,1.285,1.532a10.457,10.457,0,0,1,1.055,1.694,7.337,7.337,0,0,1,.653,1.9,5.382,5.382,0,0,1,.048,2.007,4.412,4.412,0,0,1-.341,1.1c-.222-.261-.517-.6-.877-.993-.811-.888-1.933-2.031-3.131-3.1a21.563,21.563,0,0,0-1.846-1.5,5.5,5.5,0,0,0-.5-.318A2.068,2.068,0,0,0,63,70.573a2.118,2.118,0,0,0-.31-.1,3.049,3.049,0,0,0-1.1-.1,2.283,2.283,0,0,0-.929.332,3.156,3.156,0,0,0-.566.453c-.074.078-.136.144-.188.205-.286-.17-.571-.337-.855-.506-.692-.374-1.376-.765-2.086-1.1A37.918,37.918,0,0,0,52.631,67.9a30.166,30.166,0,0,0-4.516-1.267,54.034,54.034,0,0,0-9.023-.919,136.83,136.83,0,0,0-15.98.868,18.408,18.408,0,0,1-6.2-.363,14.059,14.059,0,0,1-4.33-1.954A13.915,13.915,0,0,1,10.238,62.3c-.055-.057-.1-.112-.152-.165a.267.267,0,0,0,.047-.1S10,61.942,9.786,61.8c-.175-.2-.262-.317-.262-.317a.2.2,0,0,0-.252-.029c-.9-.6-2.388-1.568-3.92-2.471C2.919,57.52.39,56.236.39,56.236a.543.543,0,0,0-.117.18l-.193.376a.556.556,0,0,0-.078.2s2.506,1.272,4.916,2.715c1.791,1.057,3.522,2.2,4.3,2.728.109.125.24.271.4.444a14.676,14.676,0,0,0,2.487,2.094A14.911,14.911,0,0,0,16.7,67.047a19.239,19.239,0,0,0,6.476.388,136.618,136.618,0,0,1,15.9-.867,53.361,53.361,0,0,1,8.878.9A29.481,29.481,0,0,1,52.344,68.7a36.946,36.946,0,0,1,4.245,1.815c.7.331,1.366.715,2.044,1.08.662.395,1.332.774,1.972,1.2.653.4,1.272.857,1.9,1.292.606.463,1.224.91,1.8,1.4a28.305,28.305,0,0,1,3.25,3.1l.258.286.191.21c.066.052.117.195.208.1l.5-.282a1.92,1.92,0,0,0,.276-.171M98.239,9.981c-.192.109-.79.445-1.648.874-1.046.526-2.473,1.18-3.93,1.741a22.412,22.412,0,0,1-2.15.724,3.046,3.046,0,0,1-.892.143,2.471,2.471,0,0,1-.8-.18,1.414,1.414,0,0,1-.533-.458q1.54-.674,3.079-1.367c1.141-.5,2.27-1.036,3.4-1.55q.845-.4,1.685-.79l.839-.393a1.766,1.766,0,0,1,.637-.239.159.159,0,0,1,.112.066.707.707,0,0,1,.121.253,1.622,1.622,0,0,1,.06.365l.023.436c0,.126,0,.251-.005.376m-.476,3.033a9.833,9.833,0,0,1-.662,1.55,7.613,7.613,0,0,1-2.09,2.469l-.319.235a3.5,3.5,0,0,1-.317.167c-.238.116-.492.223-.739.334l-1.494.628-5.589,2.269L75.345,25.211c-3.314,0-6.442-.042-9.294-.1-3.819-.083-7.153-.2-9.829-.3l1.067-.334c2.081-.658,5.047-1.628,8.582-2.86,6.068-2.108,13.8-5.052,21.62-8.442a2.32,2.32,0,0,0,.971.883,3.273,3.273,0,0,0,1.055.254,2.921,2.921,0,0,0,.343.005l.3-.042c.192-.036.382-.077.567-.127a23.311,23.311,0,0,0,2.24-.754c1.49-.574,2.936-1.237,4-1.773.5-.248.909-.466,1.211-.631-.012.118-.018.238-.034.354a11.318,11.318,0,0,1-.385,1.674M88.325,24.957c-3.689.151-7.278.223-10.694.247l9.241-3.747,5.6-2.272,1.507-.635c.254-.113.509-.221.771-.348a4.016,4.016,0,0,0,.421-.227l.358-.263A8.437,8.437,0,0,0,97.85,14.97a9.357,9.357,0,0,0,.452-.975,2.649,2.649,0,0,1,.214,1.437,7.722,7.722,0,0,1-.828,2.622c-.225.467-.489.938-.775,1.41a5.655,5.655,0,0,1-.989,1.238,12.809,12.809,0,0,1-2.657,1.838c-.928.524-1.8.949-2.578,1.294s-1.438.649-1.89.879c-.2.1-.357.182-.474.244M106.1,26.1c-.244.051-.9.18-1.808.318-1.158.178-2.717.36-4.276.444a22.274,22.274,0,0,1-2.269.027,3.089,3.089,0,0,1-.892-.139,2.482,2.482,0,0,1-.7-.418,1.573,1.573,0,0,1-.448-.932c2.477-.171,4.971-.383,7.464-.641l2.521-.28.314-.035.158-.017a.233.233,0,0,1,.051,0,.157.157,0,0,1,.123.1,2.711,2.711,0,0,1-.016.445c-.01.195-.056.386-.08.58s-.086.369-.14.549M96.225,49.449a1.07,1.07,0,0,0-.013.241V49.7c-.025.045-.051.091-.074.13-.043.075-.086.148-.13.221-.323-.069-.888-.195-1.6-.379-1.133-.292-2.639-.737-4.1-1.272a22.452,22.452,0,0,1-2.1-.867,3.054,3.054,0,0,1-.766-.479,2.485,2.485,0,0,1-.482-.661,1.631,1.631,0,0,1-.027-1.107l.019-.057,1.573.611,4.312,1.676,2.17.842c.678.241,1.351.675,1.215,1.093m.619-.117-.005-.006c.006-.005.008,0,.005.006M68.132,76.215c.463.508.819.922,1.038,1.182a3.453,3.453,0,0,1-.674.639,1.033,1.033,0,0,1-.191.119l-.021-.023-.1-.105a29.221,29.221,0,0,0-3.341-3.188c-.589-.5-1.22-.962-1.841-1.437-.641-.444-1.275-.906-1.941-1.319-.138-.091-.28-.175-.421-.262.019-.021.034-.038.055-.058a1.742,1.742,0,0,1,1-.543,2.2,2.2,0,0,1,.8.082,1.018,1.018,0,0,1,.183.058,1.664,1.664,0,0,1,.19.1c.134.073.28.175.424.273a20.935,20.935,0,0,1,1.767,1.442c1.171,1.046,2.277,2.173,3.07,3.043" transform="translate(0 2.275)" fill="#00386c"/><path d="M122.477,33.9l-.326-.594a28.737,28.737,0,0,1,6.931-3.028,48.619,48.619,0,0,1,18.393-2.1,68.767,68.767,0,0,1,8.341,1.434,39.981,39.981,0,0,1,10.607,3.915c.836.448,1.6,1.042,2.388,1.571.23.153.476.3.174.614-.226.231-.279.663-.823.4-1.952-.962-3.9-1.944-5.906-2.782a48.916,48.916,0,0,0-28.275-3.2,41.167,41.167,0,0,0-10.437,3.2c-.343.165-.671.361-1.068.576" transform="translate(36.403 8.348)" fill="#d7c29f"/><path d="M167.853,36.4c-.241.614-.517.654-1.014.434-2.44-1.086-4.869-2.217-7.368-3.154a38.818,38.818,0,0,0-10.057-2.116,61.5,61.5,0,0,0-17.107.752,42.9,42.9,0,0,0-8.516,2.665c-.283.117-.448.123-.6-.156-.136-.249-.3-.483-.5-.813.933-.422,1.793-.883,2.7-1.208a48.7,48.7,0,0,1,26.93-2.143,53.776,53.776,0,0,1,12.06,4.086c1.154.545,2.305,1.1,3.472,1.654" transform="translate(36.564 8.841)" fill="#d7c29f"/><path d="M124.555,36.344a50.148,50.148,0,0,1,7.2-2.281c5.946-1.389,11.9-1.023,17.885-.361a48.891,48.891,0,0,1,12.207,2.952c1.046.4,2.034.955,3.109,1.467a10.551,10.551,0,0,1-.888.822.589.589,0,0,1-.495-.009,49.022,49.022,0,0,0-12.249-3.872,45.51,45.51,0,0,0-17.759.023,41.346,41.346,0,0,0-7.534,2.374.547.547,0,0,1-.478-.027c-.332-.309-.619-.665-1-1.088" transform="translate(37.119 9.869)" fill="#d7c29f"/><path d="M123.651,35.223c10.819-4.72,29.378-5.7,42.79,1.937-.345.746-.5.824-1.173.485a47.35,47.35,0,0,0-17.744-4.566,55.109,55.109,0,0,0-9.66-.287,42.54,42.54,0,0,0-12.552,2.98l-.158.066c-.949.4-.949.4-1.5-.615" transform="translate(36.85 9.403)" fill="#d7c29f"/><path d="M154.607,36.5a4.575,4.575,0,0,0,.4-.871,65.753,65.753,0,0,0,1.164-11.489,57.151,57.151,0,0,0-2.529-18.762c-.026-.088-.043-.179-.062-.27.051-.035.1-.07.151-.105a4.85,4.85,0,0,1,.678.927,46.994,46.994,0,0,1,3.416,21.925,46.159,46.159,0,0,1-.977,7.657c-.112.461-.3.9-.448,1.356-.1.293-.254.391-.557.23-.417-.223-.853-.413-1.241-.6" transform="translate(45.771 1.493)" fill="#d7c29f"/><path d="M125.889,37.711c12.558-4.934,24.767-3.619,37,1.475a7.226,7.226,0,0,1-.923.724.787.787,0,0,1-.552-.051c-2.288-.849-4.529-1.857-6.865-2.536a39.456,39.456,0,0,0-12.534-1.332,55.527,55.527,0,0,0-12.113,1.72,15.616,15.616,0,0,0-2.285.748.948.948,0,0,1-1.29-.27c-.117-.144-.251-.273-.44-.478" transform="translate(37.517 10.317)" fill="#d7c29f"/><path d="M148,34.616c-1.238-.112-1.212-.11-1.146-1.306a87.646,87.646,0,0,0-.306-16.35,37.024,37.024,0,0,0-5.378-14.747c-.319-.515-.709-.985-1.11-1.537.5,0,.949-.029,1.394.005a.6.6,0,0,1,.378.293c.728,1.316,1.5,2.614,2.144,3.972,2.508,5.28,3.588,10.924,4.247,16.687a52.065,52.065,0,0,1-.2,12.22c-.029.24-.014.487-.021.762" transform="translate(41.742 0.199)" fill="#d7c29f"/><path d="M147.959,1.924a3.031,3.031,0,0,1,2.122,1.547,35.768,35.768,0,0,1,2.521,9.317,61.4,61.4,0,0,1,.823,14.605c-.2,2.7-.641,5.378-.986,8.065-.069.531-.158.537-.953.164a31.58,31.58,0,0,0,.648-6.647c.058-3.6.138-7.221-.065-10.816A43.143,43.143,0,0,0,148.852,3.8c-.249-.594-.553-1.166-.893-1.877" transform="translate(44.094 0.574)" fill="#d7c29f"/><path d="M144.129.928c.463.087.824.132,1.171.228a.722.722,0,0,1,.367.295c2.708,4.334,3.74,9.193,4.433,14.159a49.926,49.926,0,0,1,.692,10.153c-.188,2.913-.434,5.823-.654,8.734a1.074,1.074,0,0,1-.06.393,1.428,1.428,0,0,1-.289.306c-.088-.13-.269-.271-.253-.386a56.782,56.782,0,0,0-.722-18.116c-.541-2.909-1.07-5.823-1.742-8.7a25.826,25.826,0,0,0-2.757-6.712c-.045-.08-.087-.164-.186-.352" transform="translate(42.953 0.277)" fill="#d7c29f"/><path d="M121.912,32.85c-.424-.662-.44-.693.363-1.094a42.843,42.843,0,0,1,9.572-3.462,53.451,53.451,0,0,1,19.231-.981A46.4,46.4,0,0,1,162,30.042a27.644,27.644,0,0,1,7.819,4.248c.106.088.093.322.135.488-.138.008-.325.08-.408.017a30.809,30.809,0,0,0-9.389-4.543,51.253,51.253,0,0,0-12.47-2.608,48.923,48.923,0,0,0-21.42,3.162c-1.486.58-2.9,1.354-4.354,2.044" transform="translate(36.246 8.004)" fill="#d7c29f"/><path d="M149.262,35l-1.215-.252a4.761,4.761,0,0,0,.21-.729,51.027,51.027,0,0,0,.37-10.91A64.564,64.564,0,0,0,146.6,11.148,37.73,37.73,0,0,0,142.227,1.03c-.049-.077-.083-.162-.169-.332.579.053,1.089.084,1.593.161.1.017.2.191.271.31A32.792,32.792,0,0,1,147.9,12.815a97.448,97.448,0,0,1,1.691,11.844,51.51,51.51,0,0,1-.2,9.6c-.032.225-.079.448-.131.735" transform="translate(42.336 0.209)" fill="#d7c29f"/><path d="M146.013,1.353a2.091,2.091,0,0,1,1.852,1.129,42,42,0,0,1,3.64,12.787,67.071,67.071,0,0,1,.4,11.264c-.032,2.4-.215,4.8-.344,7.2a4.967,4.967,0,0,1-.182,1.185c-.066.215.16.718-.414.6-.409-.084-.653-.169-.6-.761.413-4.733,1.051-9.46.627-14.226a76.615,76.615,0,0,0-1.765-11.372,25.352,25.352,0,0,0-3.052-7.509c-.048-.077-.086-.16-.16-.3" transform="translate(43.514 0.404)" fill="#d7c29f"/><path d="M160.524,40.116c-.724.737-.8.775-1.6.352-4.317-2.275-8.993-2.948-13.785-3.118a52.132,52.132,0,0,0-12.862,1.125,25.5,25.5,0,0,0-3.3.946,1.076,1.076,0,0,1-1.319-.251c-.116-.122-.253-.226-.382-.337-.026-.09-.052-.179-.079-.269a2.661,2.661,0,0,0,.687-.044,47.208,47.208,0,0,1,9.486-1.854,46,46,0,0,1,15.657.7,35.252,35.252,0,0,1,7.262,2.6,2.272,2.272,0,0,1,.234.144" transform="translate(37.907 10.819)" fill="#d7c29f"/><path d="M146.541,9.228c-.954.478-1.876.9-2.757,1.389a24.735,24.735,0,0,0-6.709,5.74,39.14,39.14,0,0,0-6.565,10.356,19.787,19.787,0,0,0-1.739,6.316.377.377,0,0,1-.2.266,6.827,6.827,0,0,1-.754.208,11.678,11.678,0,0,1,.61-3.755,36.106,36.106,0,0,1,3.268-7.423,39.522,39.522,0,0,1,6.18-8.414,25.475,25.475,0,0,1,7.736-5.522c.4-.182.583-.141.7.276a4.491,4.491,0,0,0,.235.563" transform="translate(38.089 2.47)" fill="#d7c29f"/><path d="M150.207,2.924a1.847,1.847,0,0,1,1.351,1.263,59.369,59.369,0,0,1,3.118,20.731,78.9,78.9,0,0,1-.964,10.766c-.031.209.127.654-.417.53-.67-.154-.8-.284-.706-.819a63.229,63.229,0,0,0,1.136-11.49,65.965,65.965,0,0,0-2.264-17.5c-.328-1.168-.82-2.29-1.254-3.483" transform="translate(44.764 0.872)" fill="#d7c29f"/><path d="M129.074,32.58c.435-1.584.749-3.1,1.267-4.544a36.739,36.739,0,0,1,6.966-11.5,23.438,23.438,0,0,1,8.6-6.7c.231-.1.506-.4.67.1.119.356.345.672-.234.9a24.6,24.6,0,0,0-2.383,1.123,20.159,20.159,0,0,0-6.568,5.788,44.5,44.5,0,0,0-6.565,12.4,9.907,9.907,0,0,0-.344,1.447c-.177.909-.167.91-1.407.988" transform="translate(38.466 2.878)" fill="#d7c29f"/><path d="M156.078,41.525c-1.073.436-2,.824-2.935,1.18a.73.73,0,0,1-.478-.088,29.455,29.455,0,0,0-18.389-2.129c-1.025.215-2.048.457-3.08.637a1.2,1.2,0,0,1-.768-.286,39.142,39.142,0,0,1,12.823-1.864,35.6,35.6,0,0,1,12.827,2.549" transform="translate(38.87 11.616)" fill="#d7c29f"/><path d="M126.536,34.237a23.085,23.085,0,0,1,.784-5.122,33.246,33.246,0,0,1,4.439-9.368,34.977,34.977,0,0,1,8.355-9.246,22.658,22.658,0,0,1,5.395-3.1c.415-.167.417-.165.6.341-1.242.655-2.525,1.247-3.723,1.979a28.64,28.64,0,0,0-7.186,6.659,44.464,44.464,0,0,0-6.18,10.536,18.885,18.885,0,0,0-1.725,6.847c-.007.208-.363.4-.558.6l-.2-.131" transform="translate(37.71 2.177)" fill="#d7c29f"/><path d="M151.259,42.857q-1.8.376-3.611.748a.246.246,0,0,1-.165-.018c-1.5-.941-3.245-1.044-4.9-1.44a19.984,19.984,0,0,0-8.794-.131c-.591.122-1.3-.34-1.935-.6a29.343,29.343,0,0,1,19.381,1.256l.023.188" transform="translate(39.295 12.019)" fill="#d7c29f"/><path d="M130.7,31.749a24.909,24.909,0,0,1,.7-2.545,42.52,42.52,0,0,1,6.7-11.995,18.056,18.056,0,0,1,7.034-5.548c.458-.184.887-.445,1.4-.71.118.395.228.763.339,1.134a13.592,13.592,0,0,0-7.029,4.45,40.185,40.185,0,0,0-5.109,7.649,21.349,21.349,0,0,0-2.2,6.179c-.228,1.276-.354,1.314-1.851,1.386" transform="translate(38.951 3.264)" fill="#d7c29f"/><path d="M158.368,40.777a1.1,1.1,0,0,1-1.369.339,39.6,39.6,0,0,0-25.518-.994,1.317,1.317,0,0,0-.435.14c-.941.707-1.623.134-2.39-.668a3.507,3.507,0,0,0,.665-.064,49.073,49.073,0,0,1,13.929-1.785,37.267,37.267,0,0,1,10.589,1.332c1.506.447,2.949,1.1,4.529,1.7" transform="translate(38.342 11.249)" fill="#d7c29f"/><path d="M151.883,3.838a2.153,2.153,0,0,1,1.325,1.428,59.865,59.865,0,0,1,2.384,23.5c-.248,2.447-.627,4.879-.945,7.318-.023.18-.036.362-.056.543-.6-.021-.672-.287-.583-.851a72.72,72.72,0,0,0,.67-19.286,51.855,51.855,0,0,0-2.7-12.281c-.031-.086-.047-.177-.1-.369" transform="translate(45.264 1.144)" fill="#d7c29f"/><path d="M146.415,12.351a.586.586,0,0,1,.064.106c.247.911.243.9-.584,1.312a19.54,19.54,0,0,0-8.6,7.974,29.1,29.1,0,0,0-2.9,6.147c-.16.549-.249,1.119-.41,1.668a3.618,3.618,0,0,1-.472,1.141c-.141.188-.521.2-.88.322a22.572,22.572,0,0,1,1.8-5.933,43.165,43.165,0,0,1,5.153-8.031,13.37,13.37,0,0,1,5.938-4.341c.3-.106.6-.244.894-.366" transform="translate(39.525 3.681)" fill="#d7c29f"/><path d="M138.191.92a1.555,1.555,0,0,1,2.1.61,31.013,31.013,0,0,1,3.189,5.748,41.069,41.069,0,0,1,3.277,17.544c-.022,3-.16,5.989-.236,8.984-.01.374-.135.467-.518.422-.417-.051-.365-.238-.323-.537a60.57,60.57,0,0,0,.575-13.813A34.455,34.455,0,0,0,138.416,1.2c-.07-.09-.143-.177-.225-.278" transform="translate(41.183 0.22)" fill="#d7c29f"/><path d="M134.062,30.209c.441-1.419.766-2.879,1.34-4.233,2.134-5.038,5.156-9.346,10.231-11.86.218-.108.444-.2.7-.313.035.166.056.274.08.38.1.419.008.576-.454.835a18.73,18.73,0,0,0-3.348,2.362,23.347,23.347,0,0,0-5.752,7.763,39.792,39.792,0,0,0-1.51,4.251c-.286.883-.256.9-1.292.814" transform="translate(39.953 4.114)" fill="#d7c29f"/><path d="M120.978,16.141a3.309,3.309,0,0,1,1.473-2.3,31.042,31.042,0,0,1,12.461-5.093,39.738,39.738,0,0,1,6.837-.557,3.567,3.567,0,0,1,1.167.219c-.315.217-.626.443-.951.644a.409.409,0,0,1-.282-.012,3.01,3.01,0,0,0-.936-.282,26.693,26.693,0,0,0-3.633.393,42.072,42.072,0,0,0-12.522,4.452c-1.068.618-2.043,1.4-3.059,2.105-.167.116-.325.248-.554.426" transform="translate(36.053 2.441)" fill="#d7c29f"/><path d="M146.4,7.063a2.293,2.293,0,0,1-.63.073,22.686,22.686,0,0,0-2.61-.518c-6.452-.418-12.695.354-18.514,3.409a3.945,3.945,0,0,1-.9.33,3.016,3.016,0,0,1,1.384-1.446,32.84,32.84,0,0,1,8.528-2.77c2.456-.3,4.943-.391,7.419-.453a31.042,31.042,0,0,1,4.1.3c.845.092.84.145,1.221,1.08" transform="translate(36.881 1.694)" fill="#d7c29f"/><path d="M122.074,13.24c.309-.541.561-.963.793-1.4a1.822,1.822,0,0,1,1.041-.793c1.308-.533,2.595-1.121,3.882-1.7a31.729,31.729,0,0,1,13.092-2.366c1.1-.006,2.209.082,3.314.148a8.085,8.085,0,0,1,1,.2c-.562.291-.979.514-1.4.718a.562.562,0,0,1-.315.013,15.835,15.835,0,0,0-2.3-.352,32.318,32.318,0,0,0-17.7,4.685c-.43.27-.871.522-1.411.844" transform="translate(36.38 2.082)" fill="#d7c29f"/><path d="M136.366,13.105c-.323.4-.593.746-.871,1.083-.07.083-.158.192-.252.208-3.088.5-5.641,2.109-8.122,3.884a34.386,34.386,0,0,0-7.29,6.809,1.227,1.227,0,0,1-.208.171l-.162-.087a5.889,5.889,0,0,1,.409-.911c2.53-3.811,6.124-6.451,9.916-8.832a17.037,17.037,0,0,1,6.58-2.325" transform="translate(35.602 3.906)" fill="#d7c29f"/><path d="M145.631,16.354a1.167,1.167,0,0,1-.48,1.532,16.157,16.157,0,0,0-5.376,7.474c-.427,1.134-.688,2.333-1.037,3.5a.461.461,0,0,1-.251.291c-1,.225-1.151.07-.975-.911a18.177,18.177,0,0,1,5.944-10.132c.528-.495,1.1-.942,1.66-1.4.154-.127.334-.226.515-.347" transform="translate(40.962 4.874)" fill="#d7c29f"/><path d="M121.746,33.56a17.861,17.861,0,0,1-.334-5.293,20.867,20.867,0,0,1,2.255-8.052,7.046,7.046,0,0,1,1.45-1.543l.118.109c-.365.989-.744,1.973-1.092,2.969a25.326,25.326,0,0,0-1.6,10.4c.005.075.012.152.019.228.08.866.08.866-.822,1.185" transform="translate(36.168 5.565)" fill="#d7c29f"/><path d="M127.339,17.256c-.646,1.826-1.321,3.585-1.891,5.378a37.025,37.025,0,0,0-1.623,9.56c-.031.7-.056.7-.8.961-.027-.19-.061-.366-.077-.545a23.765,23.765,0,0,1,1.211-9.243c.415-1.307.877-2.6,1.363-3.884a3.656,3.656,0,0,1,1.812-2.226" transform="translate(36.621 5.143)" fill="#d7c29f"/><path d="M146.058,15.192c.325.6-.144.71-.475.949a22.714,22.714,0,0,0-5.341,5.3,17.1,17.1,0,0,0-3.137,7.663c-.053.4-.2.514-.57.5a9.011,9.011,0,0,0-.911.049c.23-4.392,6.612-13.228,10.435-14.462" transform="translate(40.418 4.528)" fill="#d7c29f"/><path d="M132.78,14.922c-.831,1.308-1.667,2.6-2.477,3.912a26.739,26.739,0,0,0-4.238,12.913c-.025.5-.148.8-.733.809a1.47,1.47,0,0,1-.029-.254,25.047,25.047,0,0,1,2.055-9.276c.635-1.41,1.2-2.853,1.912-4.222.534-1.027,1.246-1.959,1.876-2.935a1.717,1.717,0,0,1,1.634-.946" transform="translate(37.342 4.448)" fill="#d7c29f"/><path d="M119.778,21.419a3.211,3.211,0,0,1,.892-2.312,29.359,29.359,0,0,1,9.034-6.05,32.98,32.98,0,0,1,8.941-2.579c.318-.039.641-.044,1.112-.074-.352.339-.6.588-.861.824a.322.322,0,0,1-.247.092,5.4,5.4,0,0,0-3.141.238,30.9,30.9,0,0,0-13.541,7.46c-.366.36-.681.771-1.028,1.153s-.7.753-1.162,1.249" transform="translate(35.696 3.101)" fill="#d7c29f"/><path d="M137.927,11.79a2.1,2.1,0,0,1-1.547.881,17.741,17.741,0,0,0-5.463,1.645,32.774,32.774,0,0,0-11.337,9.341c.032-.607-.112-1.136.352-1.607.854-.871,1.674-1.777,2.51-2.665a23.258,23.258,0,0,1,7.116-4.926c1.72-.816,3.488-1.549,5.279-2.195a21.529,21.529,0,0,1,3.045-.643c.016.056.03.113.045.169" transform="translate(35.637 3.464)" fill="#d7c29f"/><path d="M139.123,28.647c.117-2.757,2.84-8.54,6.159-10.716a2.245,2.245,0,0,1-.554,2.095,18.657,18.657,0,0,0-4.263,6.855c-.14.375-.264.757-.375,1.142-.2.693-.195.694-.967.624" transform="translate(41.461 5.344)" fill="#d7c29f"/><path d="M163.216,27.181a60.594,60.594,0,0,0-4.174-9.735c-.445-.88-1.033-1.686-1.552-2.529a.954.954,0,0,1-.149-.3c-.16-.879-.308-1.758-.466-2.674,2.213,1.922,6.783,12.9,6.342,15.237" transform="translate(46.751 3.56)" fill="#d7c29f"/><path d="M125.55,8.041a3.714,3.714,0,0,1,1.642-1.363,54.094,54.094,0,0,1,9.7-2.222,18.137,18.137,0,0,1,6.929.4c.809.2.809.2.949.579-6.572-.479-13.08-.392-19.221,2.608" transform="translate(37.416 1.279)" fill="#d7c29f"/><path d="M130.268,15.711c-.546.966-1.116,1.847-1.56,2.788-.762,1.619-1.465,3.267-2.159,4.918a26.054,26.054,0,0,0-1.716,8.942c-.01.214-.278.415-.426.622-.08-.035-.162-.07-.243-.106.177-1.538.3-3.085.541-4.614a40.817,40.817,0,0,1,2.457-8.616c.231-.584.52-1.15.7-1.748a3.475,3.475,0,0,1,2.4-2.185" transform="translate(37.003 4.683)" fill="#d7c29f"/><path d="M120.271,18.629a2.359,2.359,0,0,1,.826-1.65,25.079,25.079,0,0,1,8.2-4.918,47.285,47.285,0,0,1,9.2-2.588,17.4,17.4,0,0,1,2.738-.191,1.365,1.365,0,0,1-1.184.633,19.575,19.575,0,0,0-3.969.454A34.7,34.7,0,0,0,124.4,15.232c-1.21.819-2.282,1.842-3.414,2.774-.23.19-.45.391-.718.623" transform="translate(35.843 2.767)" fill="#d7c29f"/><path d="M157.582,15.564c.413.827.858,1.639,1.233,2.483.946,2.126,1.964,4.229,2.756,6.413a33.107,33.107,0,0,1,1.153,4.822,3.678,3.678,0,0,1-.222,1.276l-.217.053a2.638,2.638,0,0,0-.016-.419,40.787,40.787,0,0,0-4.355-11.946,7.608,7.608,0,0,1-.475-2.632l.143-.051" transform="translate(46.919 4.639)" fill="#d7c29f"/><path d="M161.472,32.423a72.117,72.117,0,0,0-3.725-11.289,8.282,8.282,0,0,1-.2-2.39l.209-.042c.461,1.037.946,2.065,1.377,3.115a43.437,43.437,0,0,1,2.54,8.962,9.9,9.9,0,0,1,.025,1.655l-.226-.012" transform="translate(46.952 5.574)" fill="#d7c29f"/><path d="M127.722,5.786a5.6,5.6,0,0,1,2.9-1.5,27.62,27.62,0,0,1,11.966-.709c.256.047.467.343.662.619-5.328-1.151-10.366.18-15.528,1.59" transform="translate(38.063 0.956)" fill="#d7c29f"/><path d="M144.979,43.355a27.67,27.67,0,0,1-10.463-1.11c1.337-.745,7.844-.055,10.463,1.11" transform="translate(40.088 12.498)" fill="#d7c29f"/><path d="M156.191,9.35c2.706,1.941,7.281,10.953,7.405,14.712-.112-.292-.169-.431-.217-.571a38.78,38.78,0,0,0-4.9-10.375,12.46,12.46,0,0,0-1.3-1.6,4.2,4.2,0,0,1-.989-2.168" transform="translate(46.548 2.787)" fill="#d7c29f"/><path d="M161.994,16.447a31.566,31.566,0,0,0-4.638-6.574,4.063,4.063,0,0,0-.7-.749c-.966-.648-1.1-1.725-1.51-2.71,1.751.77,6.368,7.512,6.848,10.034" transform="translate(46.236 1.912)" fill="#d7c29f"/><path d="M120.8,31.082a13.291,13.291,0,0,1-.771-3.2,17.257,17.257,0,0,1,.706-3.771,8.218,8.218,0,0,1,.668-1.881,6.1,6.1,0,0,1,1.175-1.462,22.178,22.178,0,0,0-1.612,10.269l-.166.042" transform="translate(35.771 6.191)" fill="#d7c29f"/><path d="M130.918,3.445a6.822,6.822,0,0,1,2.669-1.04c1.591-.1,3.178-.308,4.77-.392a8.9,8.9,0,0,1,2.2.2c.261.053.456.436.645.727a30.551,30.551,0,0,0-10.283.508" transform="translate(39.016 0.598)" fill="#d7c29f"/><path d="M160.719,33.455c-.546-1.894-1.071-3.878-1.7-5.831-.423-1.32-1.037-2.579-1.464-3.9a6.416,6.416,0,0,1-.035-1.746c1.233,1.944,3.261,9.417,3.194,11.474" transform="translate(46.932 6.551)" fill="#d7c29f"/><path d="M144.892,19.883a2.408,2.408,0,0,1-.483,1.843A16.592,16.592,0,0,0,140.95,27.8c-.039.13-.23.214-.35.319-.042-.134-.147-.286-.116-.4a20.1,20.1,0,0,1,4.408-7.837" transform="translate(41.865 5.926)" fill="#d7c29f"/><path d="M144.424,22.079a4.089,4.089,0,0,1-.636,2.333,26.218,26.218,0,0,0-1.677,2.957c-.061.105-.291.143-.445.151-.048,0-.18-.227-.151-.3.456-1.064.885-2.144,1.42-3.168a21.347,21.347,0,0,1,1.354-2.028l.135.053" transform="translate(42.173 6.565)" fill="#d7c29f"/><path d="M157.539,24.729c.471,1.467,1,2.918,1.4,4.407.378,1.433.611,2.9.91,4.36.023.109.077.213.1.323.025.132.03.267.044.4-.1.005-.227.053-.287.009-.122-.091-.291-.23-.295-.354a20.229,20.229,0,0,0-1.867-7.435,3.448,3.448,0,0,1-.177-1.646l.177-.065" transform="translate(46.891 7.37)" fill="#d7c29f"/><path d="M157.242,26.816a27.965,27.965,0,0,1,1.477,5.953,1.142,1.142,0,0,1-.766-.941c-.262-1.184-.668-2.336-.927-3.522a5.7,5.7,0,0,1,.066-1.485l.149-.005" transform="translate(46.786 7.992)" fill="#d7c29f"/><path d="M143.782,24.762c-.06.471-.114.944-.18,1.415-.117.826-.119.826-1.1.583.392-.717.768-1.4,1.144-2.089l.14.091" transform="translate(42.467 7.353)" fill="#d7c29f"/><path d="M157.4,31.152c-.418-.228-.719-.374-1-.556a.352.352,0,0,1-.122-.31,6.264,6.264,0,0,1,.656-1.366c.145.7.292,1.4.463,2.231" transform="translate(46.572 8.62)" fill="#d7c29f"/><path d="M138.418,1.627l-2.6-.226c-.005-.027-.012-.055-.017-.082a11.584,11.584,0,0,1,1.859-.337c.275-.009.563.334.845.517l-.09.129" transform="translate(40.472 0.293)" fill="#d7c29f"/><path d="M143.506,71.605c.653.217,1.177.371,1.687.565,3.483,1.314,6.969,2.617,10.439,3.96a84.712,84.712,0,0,0,11.691,3.629,61.879,61.879,0,0,0,17.269,1.717,14.671,14.671,0,0,0,3.481-.611,2.605,2.605,0,0,0,1.819-3.438,4.676,4.676,0,0,0-.74-1.594,15.464,15.464,0,0,0-1.89-2.063,19.384,19.384,0,0,0-5.71-4.061,45.317,45.317,0,0,0-4.637-1.46,42.252,42.252,0,0,0-20.012-.793,86.685,86.685,0,0,0-12.438,3.785c-.279.1-.558.212-.961.365M125.322,42.243c.4-.215.726-.411,1.068-.576a41.151,41.151,0,0,1,10.437-3.2A48.9,48.9,0,0,1,165.1,41.664c2.007.839,3.954,1.82,5.906,2.782.544.269.6-.165.822-.395.3-.31.057-.461-.173-.614-.794-.53-1.552-1.124-2.388-1.572a39.978,39.978,0,0,0-10.607-3.914,68.768,68.768,0,0,0-8.341-1.434,48.593,48.593,0,0,0-18.393,2.1A28.733,28.733,0,0,0,125,41.647c.113.208.213.389.326.6m45.537,3c-1.168-.556-2.318-1.109-3.472-1.654a53.894,53.894,0,0,0-12.061-4.086,48.728,48.728,0,0,0-26.93,2.143c-.907.326-1.767.787-2.7,1.208.2.33.366.565.5.813.152.279.315.273.6.156a43.039,43.039,0,0,1,8.516-2.665,61.491,61.491,0,0,1,17.105-.75,38.868,38.868,0,0,1,10.058,2.114c2.5.937,4.926,2.068,7.366,3.154.5.222.772.182,1.015-.434m-42.744.967c.38.423.668.78,1,1.088a.547.547,0,0,0,.478.027,41.341,41.341,0,0,1,7.534-2.373,45.485,45.485,0,0,1,17.759-.025A49.025,49.025,0,0,1,167.135,48.8a.594.594,0,0,0,.495.008,10.542,10.542,0,0,0,.888-.82c-1.075-.513-2.063-1.066-3.109-1.467A48.764,48.764,0,0,0,153.2,43.572c-5.986-.663-11.939-1.029-17.885.361a49.979,49.979,0,0,0-7.2,2.279m-1.172-1.586c.553,1.012.553,1.012,1.5.615l.16-.067a42.581,42.581,0,0,1,12.552-2.98,55.366,55.366,0,0,1,9.66.287,47.376,47.376,0,0,1,17.744,4.568c.676.339.828.261,1.172-.485-13.412-7.638-31.97-6.658-42.789-1.937M166.819,38c.389.184.824.375,1.242.6.3.161.46.064.557-.228.151-.452.336-.9.448-1.358a46.282,46.282,0,0,0,.977-7.656,47.025,47.025,0,0,0-3.416-21.925,4.88,4.88,0,0,0-.679-.928l-.151.106c.021.09.038.18.064.27a57.108,57.108,0,0,1,2.527,18.76,65.782,65.782,0,0,1-1.164,11.49,4.574,4.574,0,0,1-.4.871m-36.97,10.03c.19.205.323.334.439.478a.949.949,0,0,0,1.29.27,15.472,15.472,0,0,1,2.286-.746,55.607,55.607,0,0,1,12.113-1.721,39.456,39.456,0,0,1,12.534,1.332c2.336.679,4.577,1.687,6.864,2.536a.783.783,0,0,0,.553.051,7.319,7.319,0,0,0,.923-.724c-12.234-5.092-24.443-6.407-37-1.475m26.341-13.213c.006-.276-.009-.522.021-.763a52.065,52.065,0,0,0,.2-12.22c-.659-5.762-1.738-11.406-4.246-16.686-.644-1.358-1.416-2.656-2.144-3.972a.591.591,0,0,0-.378-.293c-.447-.035-.9-.009-1.4-.005.4.552.792,1.022,1.111,1.536a37.008,37.008,0,0,1,5.376,14.748,87.644,87.644,0,0,1,.308,16.35c-.066,1.2-.092,1.193,1.146,1.306M158.5,2.5c.34.711.644,1.282.893,1.877a43.205,43.205,0,0,1,3.216,14.357c.2,3.6.123,7.212.065,10.816a31.658,31.658,0,0,1-.648,6.647c.794.374.884.367.951-.162.347-2.687.79-5.367.988-8.066a61.453,61.453,0,0,0-.823-14.6,35.757,35.757,0,0,0-2.522-9.317A3.03,3.03,0,0,0,158.5,2.5M153.524,1.2c.1.188.139.271.184.352a25.774,25.774,0,0,1,2.758,6.713c.672,2.879,1.2,5.793,1.742,8.7a56.782,56.782,0,0,1,.722,18.116c-.016.114.165.256.253.386a1.454,1.454,0,0,0,.289-.305,1.083,1.083,0,0,0,.058-.393c.222-2.911.466-5.822.655-8.736a50.018,50.018,0,0,0-.692-10.153c-.693-4.966-1.725-9.825-4.434-14.159a.705.705,0,0,0-.366-.293c-.347-.1-.707-.143-1.171-.23M124.6,40.854c1.456-.691,2.867-1.464,4.354-2.046a48.9,48.9,0,0,1,21.42-3.161,51.131,51.131,0,0,1,12.47,2.608,30.806,30.806,0,0,1,9.389,4.542c.083.064.27-.008.408-.017-.042-.166-.029-.4-.135-.488a27.64,27.64,0,0,0-7.819-4.247,46.339,46.339,0,0,0-10.919-2.728,53.451,53.451,0,0,0-19.231.98,42.888,42.888,0,0,0-9.572,3.463c-.8.4-.788.431-.363,1.094m33.438-5.648c.052-.286.1-.509.132-.735a51.616,51.616,0,0,0,.2-9.6,97.442,97.442,0,0,0-1.691-11.844A32.792,32.792,0,0,0,152.7,1.377c-.071-.119-.167-.293-.271-.31-.5-.077-1.012-.108-1.593-.161.086.17.119.257.169.332a37.705,37.705,0,0,1,4.374,10.118A64.564,64.564,0,0,1,157.4,23.315a51.022,51.022,0,0,1-.37,10.91,4.757,4.757,0,0,1-.21.729l1.215.252m-2.07-33.45c.074.14.113.223.161.3a25.37,25.37,0,0,1,3.05,7.509,76.609,76.609,0,0,1,1.765,11.372c.424,4.765-.214,9.494-.627,14.226-.052.592.192.675.6.759.574.119.348-.383.414-.6a4.969,4.969,0,0,0,.182-1.185c.128-2.4.312-4.8.344-7.2a67.062,67.062,0,0,0-.4-11.263,41.987,41.987,0,0,0-3.64-12.787,2.09,2.09,0,0,0-1.852-1.129m8.9,49.178a2.274,2.274,0,0,0-.234-.144,35.251,35.251,0,0,0-7.262-2.6,46,46,0,0,0-15.657-.7,47.208,47.208,0,0,0-9.486,1.854,2.661,2.661,0,0,1-.687.044c.027.09.053.179.079.269.129.112.266.215.382.337a1.076,1.076,0,0,0,1.319.251,25.562,25.562,0,0,1,3.3-.946,52.132,52.132,0,0,1,12.862-1.125c4.792.17,9.468.842,13.785,3.118.8.423.872.386,1.6-.352M151.071,11.7a4.676,4.676,0,0,1-.235-.562c-.116-.418-.3-.459-.7-.276a25.465,25.465,0,0,0-7.736,5.52,39.521,39.521,0,0,0-6.18,8.414,36.146,36.146,0,0,0-3.268,7.425,11.669,11.669,0,0,0-.61,3.754,6.838,6.838,0,0,0,.754-.206.379.379,0,0,0,.2-.266,19.769,19.769,0,0,1,1.739-6.316A39.132,39.132,0,0,1,141.6,18.826a24.732,24.732,0,0,1,6.709-5.74c.881-.492,1.8-.911,2.757-1.39m10.341-7.9c.435,1.193.926,2.314,1.254,3.481a65.981,65.981,0,0,1,2.264,17.5,63.236,63.236,0,0,1-1.134,11.49c-.1.535.036.665.706.819.543.125.384-.322.415-.53a78.713,78.713,0,0,0,.964-10.766,59.3,59.3,0,0,0-3.118-20.731A1.847,1.847,0,0,0,161.412,3.8m-18.824,67.21c3.428-1.137,6.822-2.375,10.278-3.419a42.943,42.943,0,0,1,24.8-.006,28.712,28.712,0,0,1,5.108,1.82,21.5,21.5,0,0,1,6.953,5.779,5.858,5.858,0,0,1,1.016,2.212,3.359,3.359,0,0,1-2.291,4.232,15.3,15.3,0,0,1-3.754.7,59.816,59.816,0,0,1-15.54-1.3,78.38,78.38,0,0,1-12.471-3.612c-3.5-1.333-6.99-2.67-10.493-3.981-1.162-.434-2.343-.82-3.531-1.172a1.929,1.929,0,0,0-1.1.021,84.539,84.539,0,0,1-18.281,3.956c-.644.069-1.3.032-1.943.106a20.542,20.542,0,0,1-3.024-.221c-4.769-.546-6.384-4.583-5.47-8.159a21,21,0,0,1,5.282-9.251,64.821,64.821,0,0,1,10.439-8.725c.374-.258.792-.452,1.251-.71-.652-.688-1.281-1.3-1.852-1.965-6.207-7.2-8.481-15.513-6.582-24.809A28.177,28.177,0,0,1,143.87.508a27.912,27.912,0,0,1,14.652,1.11,27.178,27.178,0,0,1,7.465,3.941,28.036,28.036,0,0,1,11.425,20.153,27.548,27.548,0,0,1-1.272,11.53,28.115,28.115,0,0,1-3.7,7.4c-.514.742-.968,1.537-1.55,2.222a22.252,22.252,0,0,1-1.957,1.905c-8.031,7.375-17.317,9.71-27.852,6.842a26.585,26.585,0,0,1-10.041-5.339.868.868,0,0,0-1.251-.1,55.379,55.379,0,0,0-12.54,10.873,17.051,17.051,0,0,0-3.668,7.552,5.72,5.72,0,0,0,.771,4.4,4.563,4.563,0,0,0,2.935,2.038c.948.205,1.921.295,2.887.408.187.022,1.941-.062,1.941-.062,2.025.393,16.237-2.477,18.1-3.655,0,0,2.092-.631,2.37-.723m-8.606-35.547c1.24-.078,1.231-.079,1.406-.989a10.063,10.063,0,0,1,.345-1.446,44.478,44.478,0,0,1,6.565-12.4,20.163,20.163,0,0,1,6.567-5.787,24.586,24.586,0,0,1,2.383-1.123c.58-.227.353-.544.235-.9-.164-.493-.44-.193-.67-.1a23.438,23.438,0,0,0-8.6,6.7,36.76,36.76,0,0,0-6.966,11.5c-.518,1.443-.832,2.961-1.267,4.544M161.389,53.14a35.559,35.559,0,0,0-12.826-2.548,39.11,39.11,0,0,0-12.824,1.864,1.2,1.2,0,0,0,.768.284c1.033-.18,2.055-.421,3.081-.637a29.457,29.457,0,0,1,18.389,2.129.736.736,0,0,0,.476.09c.937-.357,1.861-.744,2.935-1.181m-30.7-16.726.2.132c.193-.2.55-.4.557-.6A18.9,18.9,0,0,1,133.17,29.1a44.446,44.446,0,0,1,6.18-10.537,28.617,28.617,0,0,1,7.187-6.658c1.2-.732,2.479-1.325,3.721-1.981-.182-.506-.183-.509-.6-.341a22.644,22.644,0,0,0-5.395,3.1,34.952,34.952,0,0,0-8.354,9.246,33.238,33.238,0,0,0-4.439,9.366,23.022,23.022,0,0,0-.785,5.122M157,54.875c-.008-.064-.016-.126-.022-.19a29.355,29.355,0,0,0-19.382-1.255c.633.264,1.345.726,1.935.6a19.984,19.984,0,0,1,8.794.131c1.654.4,3.4.5,4.9,1.44a.246.246,0,0,0,.165.018q1.807-.37,3.611-.748m-20.9-19.862c1.5-.073,1.623-.112,1.851-1.388a21.34,21.34,0,0,1,2.2-6.177,40.229,40.229,0,0,1,5.108-7.651,13.609,13.609,0,0,1,7.03-4.45c-.11-.37-.222-.74-.339-1.133-.519.265-.946.526-1.4.71a18.056,18.056,0,0,0-7.034,5.548A42.506,42.506,0,0,0,136.8,32.467a25.147,25.147,0,0,0-.7,2.545m27.057,17.013c-1.58-.6-3.024-1.254-4.529-1.7a37.266,37.266,0,0,0-10.589-1.332A49.073,49.073,0,0,0,134.1,50.777a3.4,3.4,0,0,1-.665.065c.766.8,1.449,1.376,2.39.668a1.317,1.317,0,0,1,.435-.14,39.6,39.6,0,0,1,25.518.993,1.093,1.093,0,0,0,1.369-.337m.436-47.044c.051.192.066.283.1.367a51.865,51.865,0,0,1,2.7,12.282,72.72,72.72,0,0,1-.67,19.286c-.09.565-.018.829.584.851.018-.18.031-.362.054-.543.318-2.439.7-4.871.945-7.318a59.871,59.871,0,0,0-2.384-23.5,2.15,2.15,0,0,0-1.325-1.427m-11.207,11.05c-.3.122-.589.26-.894.366a13.378,13.378,0,0,0-5.938,4.341,43.231,43.231,0,0,0-5.153,8.031,22.584,22.584,0,0,0-1.8,5.933c.36-.121.739-.132.88-.322a3.585,3.585,0,0,0,.471-1.141c.161-.549.25-1.119.41-1.668a29.1,29.1,0,0,1,2.9-6.147,19.537,19.537,0,0,1,8.6-7.974c.828-.409.832-.4.584-1.312a.466.466,0,0,0-.064-.106M145.817,1.14c.082.1.154.188.225.278a34.474,34.474,0,0,1,7.84,18.678,60.572,60.572,0,0,1-.575,13.813c-.042.3-.095.487.322.537.384.045.509-.048.518-.422.078-2.995.214-5.988.238-8.984A41.068,41.068,0,0,0,151.106,7.5a31.013,31.013,0,0,0-3.189-5.748,1.555,1.555,0,0,0-2.1-.61m-5.361,33.182c1.036.091,1.006.07,1.293-.813a39.428,39.428,0,0,1,1.508-4.252,23.378,23.378,0,0,1,5.752-7.763,18.841,18.841,0,0,1,3.348-2.362c.462-.258.55-.414.454-.833-.025-.106-.045-.214-.08-.382-.26.116-.485.205-.7.313-5.077,2.516-8.1,6.822-10.232,11.861-.572,1.354-.9,2.813-1.34,4.232M123.474,18.581c.23-.178.387-.31.554-.427,1.016-.707,1.991-1.488,3.059-2.105A42.1,42.1,0,0,1,139.61,11.6a26.691,26.691,0,0,1,3.633-.392,3.016,3.016,0,0,1,.936.28.409.409,0,0,0,.282.012c.324-.2.636-.426.951-.643a3.5,3.5,0,0,0-1.168-.219,39.584,39.584,0,0,0-6.835.557,31.036,31.036,0,0,0-12.462,5.093,3.3,3.3,0,0,0-1.472,2.3m26.252-9.825c-.382-.935-.375-.988-1.221-1.08a30.82,30.82,0,0,0-4.1-.295c-2.477.062-4.964.152-7.419.452a32.872,32.872,0,0,0-8.528,2.77,3.013,3.013,0,0,0-1.382,1.446,3.957,3.957,0,0,0,.894-.33c5.819-3.054,12.062-3.827,18.514-3.409a22.763,22.763,0,0,1,2.612.518,2.289,2.289,0,0,0,.628-.073M124.9,15.321c.54-.322.981-.574,1.411-.844A32.319,32.319,0,0,1,144,9.792a15.641,15.641,0,0,1,2.3.352.586.586,0,0,0,.315-.013c.426-.2.842-.428,1.4-.718a8.125,8.125,0,0,0-1-.2c-1.1-.065-2.209-.153-3.314-.147a31.719,31.719,0,0,0-13.09,2.366c-1.289.58-2.575,1.168-3.884,1.7a1.822,1.822,0,0,0-1.041.793c-.231.432-.484.854-.793,1.4m13.515,1.69a17.059,17.059,0,0,0-6.58,2.325c-3.791,2.381-7.386,5.021-9.916,8.833a5.948,5.948,0,0,0-.41.91l.164.087a1.216,1.216,0,0,0,.208-.171,34.444,34.444,0,0,1,7.288-6.809c2.482-1.773,5.034-3.383,8.123-3.884.093-.014.182-.125.251-.208.279-.336.548-.679.872-1.083m14.623,4.217c-.182.122-.36.219-.514.348-.559.461-1.133.909-1.661,1.4a18.178,18.178,0,0,0-5.944,10.132c-.175.983-.023,1.137.976.911a.459.459,0,0,0,.249-.291c.35-1.166.61-2.362,1.037-3.5a16.163,16.163,0,0,1,5.376-7.474,1.166,1.166,0,0,0,.48-1.532m-28.678,17.9c.9-.319.9-.319.822-1.186-.008-.075-.014-.152-.019-.228a25.342,25.342,0,0,1,1.6-10.4c.348-1,.727-1.979,1.092-2.97l-.118-.109a7.1,7.1,0,0,0-1.45,1.543,20.88,20.88,0,0,0-2.255,8.052,17.911,17.911,0,0,0,.334,5.295M130.4,22.4a3.656,3.656,0,0,0-1.812,2.226c-.484,1.282-.946,2.577-1.362,3.884a23.706,23.706,0,0,0-1.211,9.242c.014.179.049.357.075.545.74-.257.765-.256.8-.959a36.989,36.989,0,0,1,1.623-9.561c.569-1.793,1.243-3.551,1.89-5.376m22.517-2.679c-3.823,1.234-10.206,10.07-10.435,14.462a8.988,8.988,0,0,1,.911-.049c.37.016.515-.1.569-.5a17.108,17.108,0,0,1,3.137-7.662,22.7,22.7,0,0,1,5.343-5.3c.331-.239.8-.352.475-.949m-16.355-.35a1.717,1.717,0,0,0-1.633.946c-.63.976-1.342,1.908-1.876,2.935-.71,1.369-1.277,2.813-1.912,4.222a25.042,25.042,0,0,0-2.055,9.276,1.485,1.485,0,0,0,.029.254c.585-.005.709-.308.733-.809a26.72,26.72,0,0,1,4.238-12.913c.81-1.311,1.646-2.6,2.475-3.912M121.915,24.52c.462-.5.816-.87,1.162-1.25s.662-.793,1.028-1.153a30.928,30.928,0,0,1,13.541-7.46,5.41,5.41,0,0,1,3.141-.236.323.323,0,0,0,.247-.093c.261-.235.509-.484.862-.824-.472.031-.8.036-1.114.075a32.934,32.934,0,0,0-8.941,2.579,29.336,29.336,0,0,0-9.034,6.05,3.207,3.207,0,0,0-.892,2.312m18.09-9.267c-.014-.057-.03-.113-.045-.17a21.476,21.476,0,0,0-3.044.644c-1.791.646-3.559,1.377-5.279,2.195a23.246,23.246,0,0,0-7.116,4.925c-.837.889-1.656,1.8-2.512,2.665-.463.472-.318,1-.352,1.608A32.764,32.764,0,0,1,133,17.779a17.7,17.7,0,0,1,5.462-1.645,2.1,2.1,0,0,0,1.547-.881m7.02,18.738c.772.071.767.069.968-.624.11-.384.234-.767.374-1.142a18.667,18.667,0,0,1,4.263-6.855,2.244,2.244,0,0,0,.554-2.095c-3.319,2.177-6.042,7.959-6.159,10.716m29.385-3.25c.441-2.335-4.129-13.315-6.343-15.237.158.916.308,1.8.467,2.674a.953.953,0,0,0,.149.3c.519.842,1.107,1.648,1.552,2.527a60.777,60.777,0,0,1,4.174,9.736m-47-21.421c6.142-3,12.65-3.085,19.222-2.608-.14-.379-.141-.375-.95-.579a18.1,18.1,0,0,0-6.928-.4,53.954,53.954,0,0,0-9.7,2.221,3.719,3.719,0,0,0-1.643,1.363m4.307,11.073a3.471,3.471,0,0,0-2.4,2.183c-.182.6-.472,1.164-.7,1.75a40.72,40.72,0,0,0-2.457,8.616c-.24,1.529-.365,3.075-.543,4.614l.244.106c.148-.208.415-.409.426-.623A26.047,26.047,0,0,1,130,28.1c.693-1.651,1.4-3.3,2.159-4.918.443-.942,1.014-1.824,1.56-2.788m-11.159,1c.267-.234.488-.434.718-.623,1.133-.933,2.2-1.956,3.414-2.775a34.73,34.73,0,0,1,11.678-4.862,19.666,19.666,0,0,1,3.969-.453,1.366,1.366,0,0,0,1.184-.635,17.576,17.576,0,0,0-2.738.192,47.282,47.282,0,0,0-9.2,2.587,25.1,25.1,0,0,0-8.2,4.919,2.359,2.359,0,0,0-.826,1.65M170.942,20.2l-.141.051a7.607,7.607,0,0,0,.474,2.634,40.705,40.705,0,0,1,4.355,11.944,2.664,2.664,0,0,1,.016.421l.217-.055a3.678,3.678,0,0,0,.222-1.276,33.144,33.144,0,0,0-1.153-4.822c-.792-2.185-1.808-4.287-2.754-6.413-.376-.844-.82-1.656-1.234-2.483M174.866,38l.226.01a9.9,9.9,0,0,0-.025-1.655,43.459,43.459,0,0,0-2.54-8.962c-.432-1.049-.916-2.077-1.377-3.115l-.209.043a8.282,8.282,0,0,0,.2,2.39A72.072,72.072,0,0,1,174.866,38M132.228,6.742c5.162-1.41,10.2-2.743,15.528-1.591-.2-.276-.406-.572-.662-.619a27.618,27.618,0,0,0-11.966.709,5.606,5.606,0,0,0-2.9,1.5m19.282,49.11c-2.619-1.164-9.126-1.855-10.463-1.111a27.645,27.645,0,0,0,10.463,1.111m17.67-43.716a4.213,4.213,0,0,0,.989,2.168,12.35,12.35,0,0,1,1.3,1.6,38.78,38.78,0,0,1,4.9,10.375c.048.14.105.278.217.571-.125-3.759-4.7-12.771-7.405-14.712m5.493,6.221c-.48-2.522-5.1-9.265-6.848-10.034.414.985.544,2.061,1.51,2.709a4.1,4.1,0,0,1,.7.749,31.581,31.581,0,0,1,4.639,6.576M123.012,37.273l.166-.043a22.173,22.173,0,0,1,1.612-10.267,6.073,6.073,0,0,0-1.175,1.462,8.2,8.2,0,0,0-.668,1.881,17.244,17.244,0,0,0-.706,3.769,13.3,13.3,0,0,0,.771,3.2M136.375,4.042a30.551,30.551,0,0,1,10.283-.508c-.188-.291-.383-.674-.645-.727a8.834,8.834,0,0,0-2.2-.2c-1.593.084-3.179.288-4.77.392a6.837,6.837,0,0,0-2.669,1.04m37.716,35.964c.067-2.057-1.963-9.53-3.193-11.476a6.372,6.372,0,0,0,.035,1.747c.427,1.319,1.041,2.577,1.463,3.9.626,1.954,1.15,3.938,1.7,5.832M153.2,25.809a20.1,20.1,0,0,0-4.408,7.837c-.031.113.074.266.116.4.121-.106.312-.191.35-.319a16.59,16.59,0,0,1,3.459-6.073,2.412,2.412,0,0,0,.483-1.844m-.161,2.835-.135-.053a21.61,21.61,0,0,0-1.354,2.028c-.533,1.024-.963,2.1-1.42,3.168-.03.07.1.3.151.3.154-.008.384-.045.445-.152a26.4,26.4,0,0,1,1.677-2.956,4.089,4.089,0,0,0,.636-2.333M170.871,32.1l-.175.065a3.431,3.431,0,0,0,.175,1.646,20.177,20.177,0,0,1,1.867,7.435c0,.123.173.262.295.354.06.044.19,0,.288-.01-.014-.132-.019-.269-.045-.4-.021-.11-.075-.214-.1-.325-.3-1.454-.532-2.926-.91-4.359-.393-1.489-.925-2.94-1.4-4.407m-.4,2.709-.151.005a5.7,5.7,0,0,0-.065,1.485c.257,1.185.665,2.338.925,3.523a1.14,1.14,0,0,0,.766.94,27.9,27.9,0,0,0-1.476-5.953m-17.779-2.693-.14-.092-1.144,2.089c.983.243.986.243,1.1-.583.066-.47.121-.942.18-1.414m17.719,7.657c-.171-.827-.317-1.529-.463-2.231a6.294,6.294,0,0,0-.654,1.367.353.353,0,0,0,.121.309c.278.182.579.328,1,.556M145.333,1.92l.09-.129c-.282-.183-.57-.526-.845-.517a11.583,11.583,0,0,0-1.859.337c.005.027.012.055.017.082l2.6.226" transform="translate(33.558 0.001)" fill="#bc8e40"/><path d="M163.254,64.065c-.119-.075-12.03-7.552-23.651-7.416-13.645-.71-23.27-.322-37.838.266-3.218.129-6.669.269-10.449.408-21.108.771-36.171-4.89-41.334-15.536a11.456,11.456,0,0,1,.919-11.28c1-1.345,2.282-1.674,2.978-1.3.209.113.859.574.428,1.759l-.685-.249c.075-.206.217-.7-.09-.868-.366-.2-1.284.071-2.047,1.092a10.687,10.687,0,0,0-.846,10.527c5.031,10.376,19.861,15.9,40.65,15.124,3.78-.138,7.23-.276,10.446-.406,14.591-.589,24.226-.979,37.883-.266,11.826-.138,23.908,7.452,24.029,7.528Z" transform="translate(14.578 8.662)" fill="#bc8e40"/></g></svg>